<svg width="112" height="112" viewBox="0 0 112 112" fill="none" xmlns="http://www.w3.org/2000/svg">
<path d="M93.6215 87.255C98.648 81.2074 102.144 74.0381 103.814 66.3537C105.483 58.6692 105.278 50.6956 103.214 43.1075C101.15 35.5193 97.2893 28.5398 91.9578 22.7594C86.6262 16.979 79.9809 12.5677 72.5839 9.89867C65.187 7.22968 57.256 6.3815 49.4619 7.4259C41.6678 8.4703 34.2399 11.3766 27.8065 15.8988C21.3732 20.421 16.1236 26.4262 12.502 33.4064C8.88033 40.3865 6.99313 48.1363 7.00002 56C7.00266 67.4317 11.0311 78.4973 18.3785 87.255L18.3085 87.3145C18.5535 87.6085 18.8335 87.8605 19.0855 88.151C19.4005 88.5115 19.74 88.851 20.0655 89.201C21.0455 90.265 22.0535 91.287 23.1105 92.246C23.4325 92.54 23.765 92.813 24.0905 93.093C25.2105 94.059 26.362 94.976 27.5555 95.83C27.7095 95.935 27.8495 96.0715 28.0035 96.18V96.138C36.2009 101.907 45.9799 105.003 56.0035 105.003C66.0272 105.003 75.8062 101.907 84.0035 96.138V96.18C84.1575 96.0715 84.294 95.935 84.4515 95.83C85.6415 94.9725 86.7965 94.059 87.9165 93.093C88.242 92.813 88.5745 92.5365 88.8965 92.246C89.9535 91.2835 90.9615 90.265 91.9415 89.201C92.267 88.851 92.603 88.5115 92.9215 88.151C93.17 87.8605 93.4535 87.6085 93.6985 87.311L93.6215 87.255ZM56 28C59.1151 28 62.1602 28.9237 64.7503 30.6544C67.3403 32.385 69.359 34.8448 70.5511 37.7228C71.7432 40.6007 72.0551 43.7675 71.4474 46.8227C70.8397 49.8779 69.3396 52.6843 67.137 54.887C64.9343 57.0896 62.1279 58.5897 59.0727 59.1974C56.0175 59.8051 52.8507 59.4932 49.9728 58.3011C47.0948 57.109 44.635 55.0903 42.9044 52.5003C41.1737 49.9102 40.25 46.8651 40.25 43.75C40.25 39.5729 41.9094 35.5668 44.8631 32.6131C47.8168 29.6594 51.8229 28 56 28V28ZM28.0245 87.255C28.0852 82.6594 29.9528 78.2725 33.2233 75.0433C36.4937 71.8141 40.904 70.0024 45.5 70H66.5C71.096 70.0024 75.5063 71.8141 78.7768 75.0433C82.0472 78.2725 83.9148 82.6594 83.9755 87.255C76.2995 94.1722 66.3329 98.0003 56 98.0003C45.6671 98.0003 35.7006 94.1722 28.0245 87.255V87.255Z" fill="#C4C5C5"/>
</svg>
